<svg width="10" height="11" viewBox="0 0 10 11" fill="none" xmlns="http://www.w3.org/2000/svg">
<path d="M9.49995 3.00002H7.39995V2.10002C7.39995 1.78176 7.27352 1.47654 7.04848 1.2515C6.82343 1.02645 6.51821 0.900024 6.19995 0.900024H3.79995C3.48169 0.900024 3.17647 1.02645 2.95142 1.2515C2.72638 1.47654 2.59995 1.78176 2.59995 2.10002V3.00002H0.499951C0.420386 3.00002 0.34408 3.03163 0.287819 3.08789C0.231558 3.14415 0.199951 3.22046 0.199951 3.30002C0.199951 3.37959 0.231558 3.4559 0.287819 3.51216C0.34408 3.56842 0.420386 3.60002 0.499951 3.60002H1.09995V9.90002C1.09995 10.2183 1.22638 10.5235 1.45142 10.7486C1.67647 10.9736 1.98169 11.1 2.29995 11.1H7.69995C8.01821 11.1 8.32343 10.9736 8.54848 10.7486C8.77352 10.5235 8.89995 10.2183 8.89995 9.90002V3.60002H9.49995C9.57952 3.60002 9.65582 3.56842 9.71208 3.51216C9.76834 3.4559 9.79995 3.37959 9.79995 3.30002C9.79995 3.22046 9.76834 3.14415 9.71208 3.08789C9.65582 3.03163 9.57952 3.00002 9.49995 3.00002ZM3.19995 2.10002C3.19995 1.94089 3.26317 1.78828 3.37569 1.67576C3.48821 1.56324 3.64082 1.50002 3.79995 1.50002H6.19995C6.35908 1.50002 6.51169 1.56324 6.62421 1.67576C6.73674 1.78828 6.79995 1.94089 6.79995 2.10002V3.00002H3.19995V2.10002ZM8.29995 9.90002C8.29995 10.0592 8.23674 10.2118 8.12421 10.3243C8.01169 10.4368 7.85908 10.5 7.69995 10.5H2.29995C2.14082 10.5 1.98821 10.4368 1.87569 10.3243C1.76317 10.2118 1.69995 10.0592 1.69995 9.90002V3.60002H8.29995V9.90002Z" fill="#C60000"/>
<path d="M3.8 5.09998C3.72044 5.09998 3.64413 5.13158 3.58787 5.18784C3.53161 5.2441 3.5 5.32041 3.5 5.39998V8.39998C3.5 8.47954 3.53161 8.55585 3.58787 8.61211C3.64413 8.66837 3.72044 8.69998 3.8 8.69998C3.87956 8.69998 3.95587 8.66837 4.01213 8.61211C4.06839 8.55585 4.1 8.47954 4.1 8.39998V5.39998C4.1 5.32041 4.06839 5.2441 4.01213 5.18784C3.95587 5.13158 3.87956 5.09998 3.8 5.09998ZM6.2 5.09998C6.12044 5.09998 6.04413 5.13158 5.98787 5.18784C5.93161 5.2441 5.9 5.32041 5.9 5.39998V8.39998C5.9 8.47954 5.93161 8.55585 5.98787 8.61211C6.04413 8.66837 6.12044 8.69998 6.2 8.69998C6.27957 8.69998 6.35587 8.66837 6.41213 8.61211C6.46839 8.55585 6.5 8.47954 6.5 8.39998V5.39998C6.5 5.32041 6.46839 5.2441 6.41213 5.18784C6.35587 5.13158 6.27957 5.09998 6.2 5.09998Z" fill="#C60000"/>
</svg>