<svg width="12" height="12" viewBox="0 0 12 12" fill="none" xmlns="http://www.w3.org/2000/svg">
<path d="M1.75 12H9.25C9.71485 11.9987 10.1602 11.813 10.4883 11.4837C10.8164 11.1544 11.0004 10.7083 11 10.2435V6.475C11 6.34239 10.9473 6.21521 10.8536 6.12145C10.7598 6.02768 10.6326 5.975 10.5 5.975C10.3674 5.975 10.2402 6.02768 10.1464 6.12145C10.0527 6.21521 10 6.34239 10 6.475V10.2435C10.0007 10.4432 9.92207 10.635 9.78146 10.7769C9.64085 10.9187 9.44971 10.9989 9.25 11H1.75C1.55029 10.9989 1.35915 10.9187 1.21854 10.7769C1.07793 10.635 0.999336 10.4432 1 10.2435V2.7565C0.999336 2.55679 1.07793 2.36496 1.21854 2.22314C1.35915 2.08131 1.55029 2.00106 1.75 2H5.5C5.63261 2 5.75979 1.94732 5.85355 1.85355C5.94732 1.75979 6 1.63261 6 1.5C6 1.36739 5.94732 1.24021 5.85355 1.14645C5.75979 1.05268 5.63261 1 5.5 1H1.75C1.28515 1.00132 0.839818 1.18702 0.511729 1.51632C0.183641 1.84563 -0.000398546 2.29165 6.48054e-07 2.7565V10.2435C-0.000398546 10.7083 0.183641 11.1544 0.511729 11.4837C0.839818 11.813 1.28515 11.9987 1.75 12Z" fill="#0053A0"/>
<path d="M4.72725 5.27199L4.33275 7.07899C4.31489 7.16095 4.31794 7.24609 4.34162 7.32656C4.3653 7.40703 4.40885 7.48026 4.46825 7.53949C4.52847 7.59723 4.60172 7.6396 4.68179 7.66301C4.76187 7.68643 4.84641 7.69019 4.92825 7.67399L6.73125 7.27849C6.82487 7.25793 6.9106 7.21089 6.97825 7.14299L11.5352 2.58599C11.6746 2.4467 11.7851 2.28133 11.8605 2.09932C11.9359 1.91732 11.9747 1.72224 11.9747 1.52524C11.9747 1.32823 11.9359 1.13316 11.8605 0.951153C11.7851 0.769148 11.6746 0.603778 11.5352 0.464487C11.2496 0.191555 10.8698 0.0392456 10.4747 0.0392456C10.0797 0.0392456 9.69986 0.191555 9.41425 0.464487L4.86425 5.02599C4.79596 5.09317 4.74841 5.17856 4.72725 5.27199ZM10.1212 1.17199C10.2164 1.08086 10.343 1.02998 10.4747 1.02998C10.6065 1.02998 10.7331 1.08086 10.8282 1.17199C10.9207 1.2663 10.9726 1.39313 10.9726 1.52524C10.9726 1.65734 10.9207 1.78417 10.8282 1.87849L10.4747 2.23199L9.76775 1.52499L10.1212 1.17199ZM5.67125 5.62899L9.05825 2.23349L9.75825 2.93699L6.36975 6.33349L5.47225 6.53049L5.67125 5.62899Z" fill="#0053A0"/>
</svg>
